<svg width="40" height="40" viewBox="0 0 40 40" fill="none" xmlns="http://www.w3.org/2000/svg">
<g clip-path="url(#clip0_875_227)">
<path d="M9.99999 31.6667C9.99999 33.5 11.5 35 13.3333 35H26.6667C28.5 35 30 33.5 30 31.6667V15C30 13.1667 28.5 11.6667 26.6667 11.6667H13.3333C11.5 11.6667 9.99999 13.1667 9.99999 15V31.6667ZM30 6.66667H25.8333L24.65 5.48333C24.35 5.18333 23.9167 5 23.4833 5H16.5167C16.0833 5 15.65 5.18333 15.35 5.48333L14.1667 6.66667H9.99999C9.08333 6.66667 8.33333 7.41667 8.33333 8.33333C8.33333 9.25 9.08333 10 9.99999 10H30C30.9167 10 31.6667 9.25 31.6667 8.33333C31.6667 7.41667 30.9167 6.66667 30 6.66667Z" fill="#C72B2B"/>
</g>
<defs>
<clipPath id="clip0_875_227">
<rect width="40" height="40" fill="white"/>
</clipPath>
</defs>
</svg>
