<svg width="24" height="29" viewBox="0 0 24 29" fill="none" xmlns="http://www.w3.org/2000/svg">
<path d="M20.2658 19.5421V12.3043C20.2658 7.86025 17.8918 4.14002 13.7518 3.15568V2.17134C13.7518 0.969865 12.782 0 11.5805 0C10.379 0 9.40914 0.969865 9.40914 2.17134V3.15568C5.25464 4.14002 2.89512 7.84578 2.89512 12.3043V19.5421L0 22.4372L0 23.8847H23.161V22.4372L20.2658 19.5421ZM13.028 19.5421H10.1329V16.6469H13.028V19.5421ZM13.028 13.7518H10.1329V7.96158H13.028V13.7518ZM11.5805 28.2274C13.1728 28.2274 14.4756 26.9246 14.4756 25.3323H8.68536C8.68536 26.9246 9.97369 28.2274 11.5805 28.2274Z" fill="#C72B2B"/>
</svg>
